<svg width="24" height="24" viewBox="0 0 24 24" fill="none" xmlns="http://www.w3.org/2000/svg">
<path d="M6 5.06631C5.99974 5.59674 5.78877 6.10534 5.41351 6.48023C5.03825 6.85511 4.52943 7.06557 3.999 7.06531C3.46857 7.06504 2.95996 6.85407 2.58508 6.47881C2.21019 6.10355 1.99974 5.59474 2 5.06431C2.00027 4.53387 2.21123 4.02527 2.58649 3.65039C2.96175 3.2755 3.47057 3.06504 4.001 3.06531C4.53143 3.06557 5.04004 3.27654 5.41492 3.6518C5.78981 4.02706 6.00027 4.53587 6 5.06631ZM6.06 8.54631H2.06V21.0663H6.06V8.54631ZM12.38 8.54631H8.4V21.0663H12.34V14.4963C12.34 10.8363 17.11 10.4963 17.11 14.4963V21.0663H21.06V13.1363C21.06 6.96631 14 7.19631 12.34 10.2263L12.38 8.54631Z" fill="black"/>
</svg>
