<svg width="16" height="17" viewBox="0 0 16 17" fill="none" xmlns="http://www.w3.org/2000/svg">
<path d="M4.00004 4.50004H9.33337M4.00004 7.16671H12M8.66671 9.83337H12M8.66671 12.5H12M1.33337 14.7667V2.23337C1.33337 2.12729 1.37552 2.02555 1.45053 1.95053C1.52555 1.87552 1.62729 1.83337 1.73337 1.83337H12.168C12.2741 1.83347 12.3758 1.87567 12.4507 1.95071L14.5494 4.04937C14.5867 4.08664 14.6163 4.13092 14.6364 4.17966C14.6565 4.2284 14.6668 4.28064 14.6667 4.33337V14.7667C14.6667 14.8192 14.6564 14.8712 14.6363 14.9198C14.6162 14.9683 14.5867 15.0124 14.5496 15.0495C14.5124 15.0867 14.4683 15.1162 14.4198 15.1363C14.3713 15.1564 14.3192 15.1667 14.2667 15.1667H1.73337C1.68085 15.1667 1.62883 15.1564 1.5803 15.1363C1.53177 15.1162 1.48767 15.0867 1.45053 15.0495C1.41339 15.0124 1.38392 14.9683 1.36382 14.9198C1.34372 14.8712 1.33337 14.8192 1.33337 14.7667Z" stroke="#8C8C8C" stroke-linecap="round" stroke-linejoin="round"/>
<path d="M12 1.83337V4.10004C12 4.15257 12.0103 4.20458 12.0304 4.25311C12.0505 4.30164 12.08 4.34574 12.1172 4.38288C12.1543 4.42003 12.1984 4.44949 12.2469 4.46959C12.2955 4.48969 12.3475 4.50004 12.4 4.50004H14.6667" stroke="#8C8C8C" stroke-linecap="round" stroke-linejoin="round"/>
<path d="M4 9.83337V12.5H6V9.83337H4Z" fill="#8C8C8C" stroke="#8C8C8C" stroke-linecap="round" stroke-linejoin="round"/>
</svg>
