<svg width="148" height="24" viewBox="0 0 148 24" fill="none" xmlns="http://www.w3.org/2000/svg">
<rect x="23.335" y="10.4133" width="3.17241" height="23.3352" transform="rotate(90 23.335 10.4133)" fill="#D8F34E"/>
<rect x="13.2769" y="23.5" width="3.21865" height="23" transform="rotate(-180 13.2769 23.5)" fill="#D8F34E"/>
<rect width="3.19562" height="23.1682" transform="matrix(-0.712204 0.701972 -0.712204 -0.701973 21.0566 19.0103)" fill="#D8F34E"/>
<rect width="3.19562" height="23.1682" transform="matrix(-0.712204 -0.701973 0.712204 -0.701972 4.55469 21.2531)" fill="#D8F34E"/>
<path d="M134.621 21.0356V1.48559H137.867V9.05423H138.346C138.497 8.73771 138.742 8.42119 139.08 8.10466C139.419 7.78814 139.861 7.52747 140.407 7.32266C140.972 7.11785 141.677 7.01545 142.524 7.01545C143.597 7.01545 144.547 7.2575 145.375 7.74159C146.203 8.20707 146.843 8.86804 147.294 9.72452C147.765 10.581 148 11.5957 148 12.7687V21.0356H144.754V13.0201C144.754 11.903 144.472 11.0744 143.907 10.5344C143.362 9.97588 142.581 9.69659 141.564 9.69659C140.416 9.69659 139.513 10.0783 138.855 10.8417C138.196 11.5864 137.867 12.657 137.867 14.0534V21.0356H134.621Z" fill="white"/>
<path d="M124.519 21.4267C123.164 21.4267 121.941 21.1474 120.85 20.5888C119.758 20.0302 118.892 19.2203 118.253 18.159C117.632 17.0977 117.321 15.8223 117.321 14.3328V13.9418C117.321 12.4523 117.632 11.1769 118.253 10.1156C118.892 9.0543 119.758 8.24437 120.85 7.6858C121.941 7.12723 123.164 6.84794 124.519 6.84794C125.855 6.84794 126.994 7.08068 127.935 7.54615C128.894 8.01163 129.666 8.65399 130.249 9.47322C130.832 10.2738 131.209 11.1769 131.378 12.1823L128.245 12.8247C128.17 12.2475 127.991 11.7261 127.709 11.2607C127.426 10.7766 127.022 10.3949 126.495 10.1156C125.987 9.8363 125.356 9.69665 124.604 9.69665C123.832 9.69665 123.136 9.86423 122.515 10.1994C121.913 10.5159 121.433 11 121.075 11.6517C120.737 12.3033 120.567 13.0853 120.567 13.9977V14.2769C120.567 15.1893 120.737 15.9713 121.075 16.6229C121.433 17.256 121.913 17.7401 122.515 18.0752C123.136 18.4104 123.832 18.5779 124.604 18.5779C125.752 18.5779 126.617 18.2893 127.201 17.7122C127.803 17.1163 128.179 16.353 128.33 15.422L131.463 16.1482C131.237 17.1163 130.832 18.0008 130.249 18.8014C129.666 19.602 128.894 20.2443 127.935 20.7284C126.994 21.1939 125.855 21.4267 124.519 21.4267Z" fill="white"/>
<path d="M107.976 21.4267C106.584 21.4267 105.351 21.1381 104.279 20.5609C103.225 19.9651 102.397 19.1365 101.795 18.0752C101.211 16.9953 100.92 15.7385 100.92 14.3049V13.9697C100.92 12.5174 101.211 11.2607 101.795 10.1994C102.378 9.13808 103.197 8.31884 104.25 7.74165C105.304 7.14584 106.518 6.84794 107.892 6.84794C109.247 6.84794 110.432 7.14584 111.448 7.74165C112.465 8.31884 113.255 9.13808 113.819 10.1994C114.384 11.2607 114.666 12.4988 114.666 13.9139V15.0589H104.194C104.232 16.1388 104.617 17.0046 105.351 17.6563C106.085 18.308 106.988 18.6338 108.061 18.6338C109.115 18.6338 109.896 18.4104 110.404 17.9635C110.912 17.498 111.298 16.9767 111.561 16.3995L114.243 17.768C113.979 18.2707 113.594 18.8107 113.086 19.3879C112.596 19.9464 111.938 20.4305 111.11 20.8402C110.282 21.2312 109.237 21.4267 107.976 21.4267ZM104.222 12.6292H111.364C111.288 11.7168 110.931 10.9907 110.291 10.4507C109.67 9.91077 108.861 9.6408 107.863 9.6408C106.828 9.6408 106.001 9.91077 105.38 10.4507C104.759 10.9907 104.373 11.7168 104.222 12.6292Z" fill="white"/>
<path d="M94.4992 21.0356C93.596 21.0356 92.8715 20.7749 92.3257 20.2536C91.7988 19.7137 91.5354 18.9875 91.5354 18.0752V9.89211H87.8941V7.2389H91.5354V2.79825H94.7815V7.2389H98.7898V9.89211H94.7815V17.5445C94.7815 18.1031 95.045 18.3824 95.5719 18.3824H98.3663V21.0356H94.4992Z" fill="white"/>
<path d="M77.4208 15.3382V12.4616H85.776V15.3382H77.4208Z" fill="white"/>
<path d="M67.4551 21.4267C66.0625 21.4267 64.8299 21.1381 63.7573 20.5609C62.7035 19.9651 61.8755 19.1365 61.2733 18.0752C60.69 16.9953 60.3983 15.7385 60.3983 14.3049V13.9697C60.3983 12.5174 60.69 11.2607 61.2733 10.1994C61.8567 9.13808 62.6753 8.31884 63.7291 7.74165C64.7829 7.14584 65.9967 6.84794 67.3704 6.84794C68.7253 6.84794 69.9108 7.14584 70.927 7.74165C71.9432 8.31884 72.7335 9.13808 73.2981 10.1994C73.8626 11.2607 74.1449 12.4988 74.1449 13.9139V15.0589H63.6726C63.7103 16.1388 64.096 17.0046 64.8299 17.6563C65.5638 18.308 66.4671 18.6338 67.5397 18.6338C68.5936 18.6338 69.3745 18.4104 69.8826 17.9635C70.3907 17.498 70.7764 16.9767 71.0399 16.3995L73.7215 17.768C73.458 18.2707 73.0723 18.8107 72.5642 19.3879C72.0749 19.9464 71.4163 20.4305 70.5883 20.8402C69.7603 21.2312 68.7159 21.4267 67.4551 21.4267ZM63.7009 12.6292H70.8423C70.767 11.7168 70.4095 10.9907 69.7697 10.4507C69.1487 9.91077 68.3395 9.6408 67.3421 9.6408C66.3072 9.6408 65.4792 9.91077 64.8582 10.4507C64.2372 10.9907 63.8514 11.7168 63.7009 12.6292Z" fill="white"/>
<path d="M53.9779 21.0356C53.0746 21.0356 52.3501 20.7749 51.8044 20.2536C51.2775 19.7137 51.014 18.9875 51.014 18.0752V9.89211H47.3728V7.2389H51.014V2.79825H54.2602V7.2389H58.2684V9.89211H54.2602V17.5445C54.2602 18.1031 54.5236 18.3824 55.0505 18.3824H57.845V21.0356H53.9779Z" fill="white"/>
<path d="M41.3112 21.0357V7.23895H44.5573V21.0357H41.3112ZM42.9201 5.47945C42.3368 5.47945 41.8287 5.29326 41.3959 4.92088C40.9819 4.52987 40.7749 4.01785 40.7749 3.3848C40.7749 2.75176 40.9819 2.24904 41.3959 1.87666C41.8287 1.48566 42.3368 1.29016 42.9201 1.29016C43.5411 1.29016 44.0492 1.48566 44.4444 1.87666C44.8584 2.24904 45.0654 2.75176 45.0654 3.3848C45.0654 4.01785 44.8584 4.52987 44.4444 4.92088C44.0492 5.29326 43.5411 5.47945 42.9201 5.47945Z" fill="white"/>
<path d="M33.9512 21.0356V1.48559H37.1973V21.0356H33.9512Z" fill="white"/>
</svg>
